<?xml version="1.0" encoding="UTF-8"?><svg id="Layer_2" xmlns="http://www.w3.org/2000/svg" viewBox="0 0 352 186.65"><defs><style>.cls-1{fill:#f4f1ee;}.cls-2{fill:#5c290b;}.cls-3{fill:#ebebeb;}</style></defs><g id="Layer_2-2"><rect class="cls-2" y="61.57" width="352" height="80"/><polygon class="cls-3" points="189.19 169.03 188.93 168.8 188.53 169.11 187.56 170.16 182.4 179.89 160.7 183.85 165.15 169.39 164.98 169.1 164.5 169.27 163.25 169.97 155.33 177.63 133.47 174.69 142.17 162.32 142.1 161.98 141.59 162 140.19 162.28 130.29 167.12 110.41 157.57 122.51 148.49 122.54 148.15 122.05 148 120.63 147.84 109.72 149.38 93.76 134.16 108.08 129.26 108.22 128.95 107.8 128.66 106.5 128.06 95.64 126.16 85.17 106.75 100.3 106.51 100.53 106.26 100.22 105.85 99.16 104.88 89.43 99.72 85.47 78.02 99.93 82.47 100.22 82.3 100.05 81.82 99.35 80.57 91.69 72.66 94.63 50.79 107.01 59.49 107.34 59.43 107.33 58.91 107.05 57.51 102.2 47.61 111.75 27.73 120.84 39.83 121.17 39.87 121.32 39.38 121.49 37.95 119.94 27.05 135.17 11.09 140.07 25.4 140.38 25.54 140.67 25.12 141.27 23.82 143.16 12.97 162.58 2.49 162.81 17.62 163.07 17.85 163.47 17.54 164.44 16.49 169.6 6.75 191.3 2.79 186.85 17.25 187.02 17.55 187.5 17.38 188.75 16.68 196.67 9.01 218.53 11.95 209.83 24.33 209.9 24.66 210.41 24.65 211.81 24.37 221.71 19.52 241.59 29.07 229.49 38.16 229.46 38.5 229.95 38.64 231.37 38.81 242.28 37.26 258.24 52.49 243.92 57.39 243.78 57.7 244.2 57.99 245.5 58.59 256.36 60.48 266.83 79.9 251.7 80.14 251.47 80.39 251.78 80.8 252.84 81.77 262.57 86.92 266.53 108.63 252.07 104.18 251.78 104.34 251.95 104.83 252.65 106.07 260.31 113.99 257.37 135.85 245 127.15 244.66 127.22 244.67 127.73 244.95 129.14 249.8 139.03 240.25 158.92 231.16 146.82 230.83 146.78 230.68 147.27 230.51 148.69 232.06 159.6 216.83 175.56 211.93 161.25 211.62 161.1 211.33 161.53 210.73 162.83 208.84 173.68 189.42 184.15 189.19 169.03"/><path class="cls-2" d="m189.14,4.71l-3.91,12.72.96,1.7.39.17,1.55-.55,1.53-.86,7.53-7.29,18.7,2.51-7.65,10.89.39,1.91.32.28,1.64-.04,1.72-.34,9.42-4.61,17,8.17-10.64,7.99-.22,1.94.22.37,1.57.47,1.74.2,10.38-1.47,13.65,13.02-12.59,4.31-.81,1.77.09.42,1.35.93,1.59.73,10.33,1.81,8.96,16.6-13.3.21-1.32,1.44-.04.43,1,1.3,1.29,1.19,9.26,4.91,3.39,18.56-12.72-3.91-1.7.96-.17.39.55,1.55.86,1.53,7.29,7.53-2.51,18.7-10.89-7.65-1.91.39-.28.32.04,1.64.34,1.72,4.61,9.42-8.17,17-7.99-10.64-1.94-.22-.37.22-.47,1.57-.2,1.74,1.47,10.38-13.02,13.65-4.31-12.59-1.77-.81-.42.09-.93,1.35-.73,1.59-1.81,10.33-16.6,8.96-.21-13.3-1.44-1.32-.43-.04-1.3,1-1.19,1.29-4.91,9.26-18.56,3.39,3.91-12.72-.96-1.7-.39-.17-1.55.55-1.53.86-7.53,7.29-18.7-2.51,7.65-10.89-.39-1.91-.32-.28-1.64.04-1.72.34-9.42,4.61-17-8.17,10.64-7.99.22-1.94-.22-.37-1.57-.47-1.74-.2-10.38,1.47-13.65-13.02,12.59-4.31.81-1.77-.09-.42-1.35-.93-1.59-.73-10.33-1.81-8.96-16.6,13.3-.21,1.32-1.44.04-.43-1-1.3-1.29-1.19-9.26-4.91-3.39-18.56,12.72,3.91,1.7-.96.17-.39-.55-1.55-.86-1.53-7.29-7.53,2.51-18.7,10.89,7.65,1.91-.39.28-.32-.04-1.64-.34-1.72-4.61-9.42,8.17-17,7.99,10.64,1.94.22.37-.22.47-1.57.2-1.74-1.47-10.38,13.02-13.65,4.31,12.59,1.77.81.42-.09.93-1.35.73-1.59,1.81-10.33,16.6-8.96.21,13.3,1.44,1.32.43.04,1.3-1,1.19-1.29,4.91-9.26,18.56-3.39m-25.1-4.71l-4.35,2.35-16.6,8.96-1.28.69-.25,1.43-1.35,7.75-2.82-8.24-1.6-4.67-3.41,3.57-13.02,13.65-1,1.05.2,1.44,1.11,7.79-5.23-6.96-2.97-3.95-2.14,4.45-8.17,17-.63,1.31.64,1.31,3.46,7.06-7.12-5.01-4.04-2.84-.66,4.89-2.51,18.7-.19,1.44,1.01,1.04,5.47,5.65-8.32-2.56-4.72-1.45.89,4.86,3.39,18.56.26,1.43,1.29.68,6.95,3.68-8.7.14-4.94.08,2.35,4.35,8.96,16.6.69,1.28,1.43.25,7.75,1.35-8.24,2.82-4.67,1.6,3.57,3.41,13.65,13.02,1.05,1,1.44-.2,7.79-1.11-6.96,5.23-3.95,2.97,4.45,2.14,17,8.17,1.31.63,1.31-.64,7.06-3.46-5.01,7.12-2.84,4.04,4.89.66,18.7,2.51,1.44.19,1.04-1.01,5.65-5.47-2.56,8.32-1.45,4.72,4.86-.89,18.56-3.39,1.43-.26.68-1.29,3.68-6.95.14,8.7.08,4.94,4.35-2.35,16.6-8.96,1.28-.69.25-1.43,1.35-7.75,2.82,8.24,1.6,4.67,3.41-3.57,13.02-13.65,1-1.05-.2-1.44-1.11-7.79,5.23,6.96,2.97,3.95,2.14-4.45,8.17-17,.63-1.31-.64-1.31-3.46-7.06,7.12,5.01,4.04,2.84.66-4.89,2.51-18.7.19-1.44-1.01-1.04-5.47-5.65,8.32,2.56,4.72,1.45-.89-4.86-3.39-18.56-.26-1.43-1.29-.68-6.95-3.68,8.7-.14,4.94-.08-2.35-4.35-8.96-16.6-.69-1.28-1.43-.25-7.75-1.35,8.24-2.82,4.67-1.6-3.57-3.41-13.65-13.02-1.05-1-1.44.2-7.79,1.11,6.96-5.23,3.95-2.97-4.45-2.14-17-8.17-1.31-.63-1.31.64-7.06,3.46,5.01-7.12,2.84-4.04-4.89-.66-18.7-2.51-1.44-.19-1.04,1.01-5.65,5.47,2.56-8.32,1.45-4.72-4.86.89-18.56,3.39-1.43.26-.68,1.29-3.68,6.95-.14-8.7-.08-4.94h0Z"/><circle cx="176" cy="93.32" r="60.19"/><path class="cls-1" d="m176,155.01c-34.02,0-61.69-27.67-61.69-61.69s27.67-61.69,61.69-61.69,61.69,27.67,61.69,61.69-27.67,61.69-61.69,61.69Zm0-120.38c-32.36,0-58.69,26.33-58.69,58.69s26.33,58.69,58.69,58.69,58.69-26.33,58.69-58.69-26.33-58.69-58.69-58.69Z"/><circle class="cls-3" cx="176" cy="93.32" r="60.19"/><path class="cls-2" d="m176,155.01c-34.02,0-61.69-27.67-61.69-61.69s27.67-61.69,61.69-61.69,61.69,27.67,61.69,61.69-27.67,61.69-61.69,61.69Zm0-120.38c-32.36,0-58.69,26.33-58.69,58.69s26.33,58.69,58.69,58.69,58.69-26.33,58.69-58.69-26.33-58.69-58.69-58.69Z"/><rect class="cls-2" y="93.32" width="352" height="48.41"/><rect class="cls-3" x="4" y="65.57" width="344" height="72"/><rect class="cls-2" x="8" y="69.57" width="336" height="64"/><path class="cls-3" d="m36.63,111.44c-1.02-.46-1.82-1.09-2.39-1.9-.58-.81-.88-1.75-.9-2.81h2.72c.09.92.47,1.69,1.13,2.31.66.62,1.63.94,2.9.94s2.17-.3,2.87-.91c.7-.61,1.05-1.39,1.05-2.34,0-.75-.21-1.35-.62-1.82-.41-.47-.92-.82-1.54-1.06-.62-.24-1.45-.5-2.49-.78-1.29-.34-2.32-.67-3.09-1.01s-1.44-.86-1.99-1.58c-.55-.72-.83-1.68-.83-2.9,0-1.06.27-2.01.81-2.83s1.3-1.46,2.28-1.9,2.1-.67,3.37-.67c1.83,0,3.33.46,4.49,1.37,1.17.92,1.82,2.13,1.97,3.64h-2.8c-.09-.75-.49-1.4-1.18-1.97-.69-.57-1.61-.85-2.74-.85-1.06,0-1.93.28-2.6.83-.67.55-1.01,1.32-1.01,2.31,0,.71.2,1.29.6,1.74.4.45.9.79,1.48,1.02s1.41.5,2.48.8c1.29.35,2.32.71,3.11,1.05.78.35,1.46.88,2.02,1.6.56.72.84,1.69.84,2.93,0,.95-.25,1.85-.76,2.69s-1.25,1.52-2.24,2.04-2.16.78-3.5.78-2.44-.23-3.46-.69Z"/><path class="cls-3" d="m53.45,98.69v9.04c0,.75.16,1.27.48,1.58.32.31.87.46,1.65.46h1.88v2.16h-2.3c-1.42,0-2.48-.33-3.19-.98-.71-.65-1.06-1.73-1.06-3.22v-9.04h-1.99v-2.1h1.99v-3.86h2.55v3.86h4v2.1h-4Z"/><path class="cls-3" d="m60.53,100.08c.63-1.19,1.51-2.1,2.62-2.76,1.11-.65,2.35-.98,3.71-.98s2.51.29,3.5.87c.99.58,1.73,1.31,2.21,2.18v-2.8h2.58v15.34h-2.58v-2.86c-.5.9-1.26,1.64-2.25,2.23-1,.59-2.16.88-3.49.88s-2.59-.34-3.7-1.01-1.97-1.61-2.6-2.83c-.63-1.21-.95-2.59-.95-4.14s.32-2.94.95-4.13Zm11.34,1.13c-.47-.86-1.1-1.52-1.89-1.97-.79-.46-1.67-.69-2.62-.69s-1.82.22-2.6.67c-.78.45-1.41,1.1-1.88,1.96-.47.86-.7,1.87-.7,3.02s.23,2.2.7,3.07c.47.87,1.09,1.53,1.88,1.99.78.46,1.65.69,2.6.69s1.82-.23,2.62-.69c.79-.46,1.42-1.12,1.89-1.99.47-.87.7-1.88.7-3.04s-.23-2.17-.7-3.02Z"/><path class="cls-3" d="m83.92,97.04c.83-.49,1.84-.73,3.04-.73v2.63h-.67c-2.86,0-4.28,1.55-4.28,4.65v8.34h-2.55v-15.34h2.55v2.49c.45-.88,1.09-1.56,1.92-2.04Z"/><path class="cls-3" d="m103.51,96.59v15.34h-2.55v-2.27c-.49.78-1.16,1.4-2.03,1.83s-1.83.66-2.87.66c-1.2,0-2.27-.25-3.22-.74-.95-.49-1.7-1.24-2.25-2.23-.55-.99-.83-2.19-.83-3.61v-8.99h2.52v8.65c0,1.51.38,2.67,1.15,3.49.76.81,1.81,1.22,3.14,1.22s2.44-.42,3.22-1.26,1.18-2.06,1.18-3.67v-8.43h2.55Z"/><path class="cls-3" d="m112.62,97.22c1-.59,2.16-.88,3.49-.88s2.6.33,3.71.98c1.11.65,1.98,1.57,2.62,2.76.63,1.19.95,2.56.95,4.13s-.32,2.93-.95,4.14c-.63,1.21-1.51,2.16-2.62,2.83-1.11.67-2.35,1.01-3.71,1.01s-2.46-.29-3.46-.88c-1-.59-1.76-1.32-2.28-2.2v10.11h-2.55v-22.62h2.55v2.83c.5-.88,1.25-1.61,2.25-2.2Zm7.46,3.96c-.47-.86-1.1-1.51-1.89-1.96-.79-.45-1.67-.67-2.62-.67s-1.8.23-2.59.69c-.79.46-1.43,1.12-1.9,1.99-.48.87-.71,1.87-.71,3.01s.24,2.17.71,3.04c.48.87,1.11,1.53,1.9,1.99.79.46,1.66.69,2.59.69s1.82-.23,2.62-.69c.79-.46,1.42-1.12,1.89-1.99.47-.87.7-1.89.7-3.07s-.23-2.17-.7-3.02Z"/><path class="cls-3" d="m154.02,92.56v19.38h-2.55v-14.45l-6.44,14.45h-1.79l-6.47-14.48v14.48h-2.55v-19.38h2.74l7.17,16.02,7.17-16.02h2.72Z"/><path class="cls-3" d="m171.02,98.83c.6.69,1.06,1.49,1.39,2.41.33.91.49,1.91.49,3,0,1.59-.35,2.98-1.05,4.19s-1.65,2.13-2.84,2.79-2.52.98-3.98.98c-1.81,0-3.41-.51-4.79-1.54l-1.18,1.29h-1.82l2.02-2.21c-.6-.71-1.06-1.53-1.39-2.45-.33-.92-.49-1.94-.49-3.04,0-1.57.34-2.95,1.02-4.16.68-1.2,1.61-2.13,2.79-2.77,1.18-.64,2.49-.97,3.95-.97,1.89,0,3.52.53,4.9,1.6l1.2-1.34h1.82l-2.04,2.24Zm-10.05,9.04l7.45-8.18c-.9-.77-2-1.15-3.3-1.15-.93,0-1.79.21-2.56.63s-1.4,1.06-1.86,1.92c-.47.86-.7,1.9-.7,3.14,0,1.44.33,2.65.98,3.64Zm8.34-7.17l-7.45,8.18c.88.71,1.93,1.06,3.16,1.06.91,0,1.77-.21,2.58-.64.8-.43,1.45-1.07,1.95-1.93.49-.86.74-1.9.74-3.14,0-1.44-.33-2.61-.98-3.53Z"/><path class="cls-3" d="m181.1,97.21c1.01-.58,2.16-.87,3.44-.87,1.38,0,2.62.33,3.72.98,1.1.65,1.97,1.57,2.6,2.76.63,1.19.95,2.56.95,4.13s-.32,2.93-.95,4.14c-.64,1.21-1.51,2.16-2.62,2.83-1.11.67-2.35,1.01-3.71,1.01s-2.49-.29-3.49-.87c-1-.58-1.75-1.32-2.25-2.21v2.83h-2.55v-20.72h2.55v8.23c.52-.92,1.29-1.66,2.3-2.24Zm7.42,3.98c-.47-.86-1.1-1.51-1.89-1.96-.79-.45-1.67-.67-2.62-.67s-1.8.23-2.59.69c-.79.46-1.43,1.12-1.9,1.99-.48.87-.71,1.87-.71,3.01s.24,2.17.71,3.04c.48.87,1.11,1.53,1.9,1.99.79.46,1.66.69,2.59.69s1.82-.23,2.62-.69c.79-.46,1.42-1.12,1.89-1.99.47-.87.7-1.89.7-3.07s-.23-2.17-.7-3.02Z"/><path class="cls-3" d="m209.1,105.21h-12.26c.09,1.51.61,2.69,1.55,3.54.94.85,2.09,1.27,3.43,1.27,1.1,0,2.02-.26,2.76-.77.74-.51,1.26-1.2,1.55-2.06h2.74c-.41,1.47-1.23,2.67-2.46,3.6-1.23.92-2.76,1.39-4.59,1.39-1.46,0-2.76-.33-3.91-.98-1.15-.65-2.05-1.58-2.7-2.79s-.98-2.6-.98-4.19.32-2.98.95-4.17c.63-1.19,1.53-2.11,2.67-2.76,1.15-.64,2.47-.97,3.96-.97s2.74.32,3.86.95,1.98,1.51,2.59,2.62.91,2.37.91,3.77c0,.49-.03,1-.08,1.54Zm-3.19-4.58c-.43-.7-1.01-1.23-1.75-1.6s-1.55-.55-2.45-.55c-1.29,0-2.38.41-3.29,1.23-.91.82-1.42,1.96-1.55,3.42h9.69c0-.97-.21-1.81-.64-2.51Z"/><path class="cls-3" d="m215.09,91.21v20.72h-2.55v-20.72h2.55Z"/><path class="cls-3" d="m238.51,93.61c1.56.79,2.75,1.93,3.58,3.4.83,1.47,1.25,3.21,1.25,5.21s-.42,3.73-1.25,5.19c-.83,1.47-2.03,2.58-3.58,3.36-1.56.78-3.4,1.16-5.53,1.16h-6.08v-19.52h6.08c2.13,0,3.97.4,5.53,1.19Zm.24,14.22c1.33-1.33,1.99-3.21,1.99-5.61s-.67-4.32-2-5.68c-1.33-1.36-3.25-2.04-5.75-2.04h-3.53v15.34h3.53c2.52,0,4.44-.67,5.77-2Z"/><path class="cls-3" d="m260.61,105.21h-12.26c.09,1.51.61,2.69,1.55,3.54.94.85,2.09,1.27,3.43,1.27,1.1,0,2.02-.26,2.76-.77.74-.51,1.26-1.2,1.55-2.06h2.74c-.41,1.47-1.23,2.67-2.46,3.6-1.23.92-2.76,1.39-4.59,1.39-1.46,0-2.76-.33-3.91-.98-1.15-.65-2.05-1.58-2.7-2.79s-.98-2.6-.98-4.19.32-2.98.95-4.17c.63-1.19,1.53-2.11,2.67-2.76,1.15-.64,2.47-.97,3.96-.97s2.74.32,3.86.95,1.98,1.51,2.59,2.62.91,2.37.91,3.77c0,.49-.03,1-.08,1.54Zm-3.19-4.58c-.43-.7-1.01-1.23-1.75-1.6s-1.55-.55-2.45-.55c-1.29,0-2.38.41-3.29,1.23-.91.82-1.42,1.96-1.55,3.42h9.69c0-.97-.21-1.81-.64-2.51Z"/><path class="cls-3" d="m266.33,111.58c-.93-.4-1.67-.96-2.21-1.68-.54-.72-.84-1.54-.9-2.48h2.63c.07.77.43,1.39,1.08,1.88.64.49,1.49.73,2.53.73.97,0,1.74-.21,2.3-.64.56-.43.84-.97.84-1.62s-.3-1.17-.9-1.5c-.6-.33-1.52-.65-2.77-.97-1.14-.3-2.07-.6-2.79-.91-.72-.31-1.33-.76-1.85-1.37-.51-.61-.77-1.4-.77-2.39,0-.78.23-1.5.7-2.16.47-.65,1.13-1.17,1.99-1.55s1.84-.57,2.94-.57c1.7,0,3.07.43,4.12,1.29,1.04.86,1.61,2.04,1.68,3.53h-2.55c-.06-.8-.38-1.45-.97-1.93s-1.38-.73-2.37-.73c-.92,0-1.64.2-2.18.59-.54.39-.81.91-.81,1.54,0,.5.16.92.49,1.25s.74.59,1.23.78c.5.2,1.18.42,2.06.66,1.1.3,2,.59,2.69.88.69.29,1.28.72,1.78,1.3.49.58.75,1.33.77,2.27,0,.84-.23,1.6-.7,2.27-.47.67-1.12,1.2-1.97,1.58-.85.38-1.82.57-2.93.57-1.18,0-2.23-.2-3.16-.6Z"/><path class="cls-3" d="m278.76,93.59c-.34-.34-.5-.75-.5-1.23s.17-.9.5-1.23.75-.5,1.23-.5.86.17,1.19.5c.33.34.49.75.49,1.23s-.16.9-.49,1.23c-.33.34-.72.5-1.19.5s-.9-.17-1.23-.5Zm2.46,3v15.34h-2.55v-15.34h2.55Z"/><path class="cls-3" d="m295.37,97.21c1,.58,1.74,1.31,2.23,2.18v-2.8h2.58v15.68c0,1.4-.3,2.65-.9,3.74s-1.45,1.95-2.56,2.56c-1.11.62-2.4.92-3.88.92-2.02,0-3.7-.48-5.04-1.43-1.34-.95-2.14-2.25-2.38-3.89h2.52c.28.93.86,1.68,1.74,2.25.88.57,1.93.85,3.16.85,1.4,0,2.54-.44,3.43-1.32.89-.88,1.33-2.11,1.33-3.7v-3.22c-.5.9-1.25,1.64-2.24,2.24s-2.15.9-3.47.9-2.6-.34-3.71-1.01c-1.11-.67-1.98-1.61-2.62-2.83-.63-1.21-.95-2.59-.95-4.14s.32-2.94.95-4.13c.63-1.19,1.51-2.1,2.62-2.76,1.11-.65,2.35-.98,3.71-.98s2.49.29,3.49.87Zm1.53,4c-.47-.86-1.1-1.52-1.89-1.97-.79-.46-1.67-.69-2.62-.69s-1.82.22-2.6.67-1.41,1.1-1.88,1.96c-.47.86-.7,1.87-.7,3.02s.23,2.2.7,3.07c.47.87,1.09,1.53,1.88,1.99.78.46,1.65.69,2.6.69s1.82-.23,2.62-.69c.79-.46,1.42-1.12,1.89-1.99.47-.87.7-1.88.7-3.04s-.23-2.17-.7-3.02Z"/><path class="cls-3" d="m316.5,98c1.16,1.13,1.74,2.76,1.74,4.89v9.04h-2.52v-8.68c0-1.53-.38-2.7-1.15-3.51-.77-.81-1.81-1.22-3.14-1.22s-2.41.42-3.21,1.26c-.79.84-1.19,2.06-1.19,3.67v8.48h-2.55v-15.34h2.55v2.18c.5-.78,1.19-1.39,2.06-1.82s1.82-.64,2.87-.64c1.87,0,3.38.57,4.54,1.69Z"/><circle class="cls-3" cx="12.5" cy="74.07" r="1.5"/><circle class="cls-3" cx="12.5" cy="129.07" r="1.5"/><circle class="cls-3" cx="339.5" cy="74.07" r="1.5"/><circle class="cls-3" cx="339.5" cy="129.25" r="1.5"/></g></svg>